<svg id="icons" enable-background="new 0 0 64 64" height="16" viewBox="0 0 64 64" width="16" xmlns="http://www.w3.org/2000/svg"><path d="m40.51 52.01c.82 0 1.5.67 1.5 1.5s-.68 1.5-1.5 1.5h-17.02c-.82 0-1.5-.67-1.5-1.5s.68-1.5 1.5-1.5z" fill="#94c1ff"/><path d="m51 38v3h-15l2.98-2.98v-.02z" fill="#d7e9ff"/><path d="m38.98 38v.02l-2.98 2.98h-23v-3z" fill="#94c1ff"/><path d="m63 7v2h-62v-2c0-1.11.9-2 2-2h58c1.11 0 2 .89 2 2z" fill="#d7e9ff"/><circle cx="32" cy="23.5" fill="#94c1ff" r="10.5"/><path d="m63 9v50h-62v-50zm-12 32v-3h-12.02-25.98v3h23zm-8.99 12.51c0-.83-.68-1.5-1.5-1.5h-17.02c-.82 0-1.5.67-1.5 1.5s.68 1.5 1.5 1.5h17.02c.82 0 1.5-.67 1.5-1.5zm.49-30.01c0-5.8-4.7-10.5-10.5-10.5s-10.5 4.7-10.5 10.5 4.7 10.5 10.5 10.5 10.5-4.7 10.5-10.5z" fill="#fff"/><g fill="#116fff"><path d="m1 7.998c-.553 0-1-.447-1-1 0-1.654 1.346-3 3-3 .553 0 1 .447 1 1s-.447 1-1 1c-.552 0-1 .448-1 1 0 .553-.447 1-1 1z"/><path d="m63 7.998c-.553 0-1-.447-1-1 0-.552-.448-1-1-1-.553 0-1-.447-1-1s.447-1 1-1c1.654 0 3 1.346 3 3 0 .553-.447 1-1 1z"/><path d="m61 5.998h-58c-.553 0-1-.447-1-1s.447-1 1-1h58c.553 0 1 .447 1 1s-.447 1-1 1z"/><path d="m4.03 7.998c-.553 0-1.005-.447-1.005-1s.442-1 .994-1h.011c.552 0 1 .447 1 1s-.448 1-1 1z"/><path d="m7.029 7.998c-.553 0-1.005-.447-1.005-1s.442-1 .994-1h.011c.552 0 1 .447 1 1s-.448 1-1 1z"/><path d="m10.032 7.998c-.553 0-1.005-.447-1.005-1s.442-1 .994-1h.011c.552 0 1 .447 1 1s-.448 1-1 1z"/><path d="m1 60.002c-.553 0-1-.447-1-1v-52.004c0-.553.447-1 1-1s1 .447 1 1v52.004c0 .553-.447 1-1 1z"/><path d="m63 60.002c-.553 0-1-.447-1-1v-52.004c0-.553.447-1 1-1s1 .447 1 1v52.004c0 .553-.447 1-1 1z"/><path d="m63 9.998h-62c-.553 0-1-.447-1-1s.447-1 1-1h62c.553 0 1 .447 1 1s-.447 1-1 1z"/><path d="m63 60.002h-62c-.553 0-1-.447-1-1s.447-1 1-1h62c.553 0 1 .447 1 1s-.447 1-1 1z"/><path d="m32 34.998c-6.341 0-11.5-5.159-11.5-11.501 0-6.341 5.159-11.5 11.5-11.5s11.5 5.159 11.5 11.5c0 6.342-5.159 11.501-11.5 11.501zm0-21.001c-5.238 0-9.5 4.262-9.5 9.5 0 5.239 4.262 9.501 9.5 9.501s9.5-4.262 9.5-9.501c0-5.238-4.262-9.5-9.5-9.5z"/><path d="m51 41.999h-38c-.553 0-1-.447-1-1v-3c0-.553.447-1 1-1h38c.553 0 1 .447 1 1v3c0 .553-.447 1-1 1zm-37-2h36v-1h-36z"/><path d="m40.505 56.005h-17.014c-.553 0-1-.447-1-1s.447-1 1-1h17.014c.553 0 1 .447 1 1s-.447 1-1 1z"/><path d="m40.505 53.005h-17.014c-.553 0-1-.447-1-1s.447-1 1-1h17.014c.553 0 1 .447 1 1s-.447 1-1 1z"/><path d="m23.491 56.005c-1.379 0-2.5-1.121-2.5-2.5s1.121-2.5 2.5-2.5c.553 0 1 .447 1 1s-.447 1-1 1c-.275 0-.5.225-.5.5s.225.5.5.5c.553 0 1 .447 1 1s-.447 1-1 1z"/><path d="m40.505 56.005c-.553 0-1-.447-1-1s.447-1 1-1c.275 0 .5-.225.5-.5s-.225-.5-.5-.5c-.553 0-1-.447-1-1s.447-1 1-1c1.379 0 2.5 1.121 2.5 2.5s-1.121 2.5-2.5 2.5z"/><path d="m51.001 46.008h-38.006c-.553 0-1-.447-1-1s.447-1 1-1h38.006c.553 0 1 .447 1 1s-.447 1-1 1z"/><path d="m41.999 49.009h-20.002c-.553 0-1-.447-1-1s.447-1 1-1h20.002c.553 0 1 .447 1 1s-.447 1-1 1z"/><path d="m36 41.999c-.256 0-.512-.098-.707-.293-.391-.391-.391-1.023 0-1.414l2.98-2.979c.391-.391 1.023-.391 1.414 0s.391 1.023 0 1.414l-2.98 2.979c-.195.195-.451.293-.707.293z"/><path d="m32 29.998c-.553 0-1-.447-1-1v-10.999c0-.553.447-1 1-1s1 .447 1 1v10.999c0 .553-.447 1-1 1z"/><path d="m32 29.998c-.256 0-.512-.098-.707-.293-.391-.391-.391-1.023 0-1.414l4-4c.391-.391 1.023-.391 1.414 0s.391 1.023 0 1.414l-4 4c-.195.195-.451.293-.707.293z"/><path d="m32 29.998c-.256 0-.512-.098-.707-.293l-3.961-3.961c-.391-.391-.391-1.023 0-1.414s1.023-.391 1.414 0l3.961 3.961c.391.391.391 1.023 0 1.414-.195.195-.451.293-.707.293z"/></g></svg>
